<svg width="169" height="169" xmlns="http://www.w3.org/2000/svg" class="img-fluid">
  <g stroke="null">
    <path d="M15.4 168c-3.3-.3-5-1-8-3-2.8-2.1-5-5.1-6.4-9.5-.6-2-.6-140.2 0-142.2A17.2 17.2 0 0 1 13.4 1c2-.6 140.2-.6 142.2 0a17.2 17.2 0 0 1 12.3 12.4c.4 1.1.5 14.3.5 71 0 56.8-.1 70-.5 71.2-2 6.5-5.4 9.9-11.8 12.2-1.4.5-7.8.6-70.1.6-37.7 0-69.5 0-70.6-.2zM32 97.5v-15l2-1.7a9.9 9.9 0 0 1 8.5-3.1c3.9.2 5.3 1 6.7 3.6l1 2v14.5l.2 14.6h4.8l.1-13.9c.2-12 .3-14 .7-15.3a8.4 8.4 0 0 1 4.1-4.6c1.4-.7 2-.8 5-.8s3.7 0 4.9.7a8 8 0 0 1 3.6 5.4c.3 1 .4 6.8.4 15v13.5h4.9V99c0-15-.2-16.3-2.3-19.5-2-3.3-4.1-4.6-8-5.4a7.7 7.7 0 0 0-4.5.2c-3.7.9-7.2 3.6-8.5 6.5-.4.7-.7.9-1.6.9-1 0-1.2-.2-1.8-1.5-2.2-5.4-7.5-7.7-12.5-5.3-1 .5-2.8 1.8-4 2.9-1.8 1.7-2.2 2-3.1 1.8-1 0-1.1-.1-1.4-2-.3-2.5-.9-3.2-2.7-3.2H27v37.8h5v-15zm65.3-4V74.5h-4.9v37.8h4.9V93.4zm21 2v-17h19v33.9h5V75.2h-24v-3.8c.2-3.2.3-4.2 1-5.6.9-2 2.4-3.6 4.3-4.5 2-1.1 3-1.3 7.3-1.5l4-.2v-1.2l.2-1.2-1.9-.4c-2.5-.4-3.6-.4-6.6.2a15.5 15.5 0 0 0-13.2 16v2.2H107v1c0 1.3.7 1.7 3.7 2l2.6.4v33.7h4.9v-17zm-21-31.8c.4-.4 1-1.1 1.2-1.6.4-.9.4-1-.1-2.2-.7-1.3-2.5-2.7-3.5-2.7S92 58.7 91.5 60c-.4 1-.4 1.2 0 2.2.6 1 1.7 2 2.8 2.5.7.3 2-.2 3-1z" fill="#209CEE"/>
    <g fill="#FFF">
      <path d="M26 93.4V73.6h2.5c2.8 0 3.4.3 3.7 2.8.3 2.6.3 2.6 2.5.5 1.2-1 3-2.4 4-2.9 1.7-.8 2.4-1 5-1 2.5 0 3.1.2 4.8 1 2 1 3.7 2.9 4.7 5.3.3.8.7 1.5.8 1.5.1 0 .4-.4.6-1 2-4.2 7.8-7.3 13.1-6.8 4.8.4 7.4 1.9 9.8 5.4 2.3 3.4 2.4 4.4 2.4 20.7v14.2H73V99.8c0-8.2-.1-14-.4-15-.8-4-3.3-6-7.5-6.1-3 0-5 .9-6.6 2.8-2 2.5-2 2.7-2.2 18l-.1 13.8h-6.8l-.1-14.6-.1-14.5-1-2C47 80 45.5 79 42.6 78.6c-2.7-.3-5.1.7-7.7 3l-2 1.9v29.8h-6.8V93.4zM91.4 93.4V73.6h6.9v39.7h-6.9V93.4zM112.4 96.4V79.6l-2.6-.4a9.7 9.7 0 0 1-3.1-.7c-.4-.3-.5-1-.5-2.4v-1.9h6.2V72c0-4.8 1.7-9 4.8-12 3.9-3.6 10.8-5.3 17-4.1l2.2.4-.2 2-.4 2.2c0 .2-1.4.3-3 .3-9 0-13 3.2-13.4 10.6l-.2 2.8h24v39.1h-6.8V79.5h-17.1v33.8h-6.9V96.4zM93.4 65.7c-2.1-1-3.3-2.7-3.3-4.6 0-2.7 2.1-5 4.7-5 2.8 0 4.8 1.8 5 4.6.2 1.7-.6 3.2-2.2 4.4-1 .7-3.4 1-4.2.6z"/>
    </g>
  </g>
</svg>
